<svg xmlns="http://www.w3.org/2000/svg" width="18.868" height="18.94" viewBox="0 0 18.868 18.94">
  <path id="Shape" d="M9.434,18.94c-2.554,0-2.888-.011-3.89-.058a6.927,6.927,0,0,1-2.29-.44A4.829,4.829,0,0,1,.5,15.673a7.023,7.023,0,0,1-.438-2.3C.011,12.365,0,12.029,0,9.47s.011-2.895.057-3.9A7.023,7.023,0,0,1,.5,3.267,4.651,4.651,0,0,1,1.583,1.589,4.627,4.627,0,0,1,3.254.5a6.95,6.95,0,0,1,2.29-.44C6.55.011,6.884,0,9.434,0s2.884.011,3.89.057a6.94,6.94,0,0,1,2.29.44,4.621,4.621,0,0,1,1.671,1.093,4.642,4.642,0,0,1,1.088,1.678,7.024,7.024,0,0,1,.438,2.3c.046,1.009.057,1.345.057,3.9s-.011,2.895-.057,3.9a7.024,7.024,0,0,1-.438,2.3,4.829,4.829,0,0,1-2.759,2.769,6.917,6.917,0,0,1-2.29.44C12.322,18.929,11.988,18.94,9.434,18.94Zm0-17.233c-2.511,0-2.81.01-3.812.055a5.2,5.2,0,0,0-1.751.326A2.919,2.919,0,0,0,2.786,2.8,2.929,2.929,0,0,0,2.08,3.884a5.234,5.234,0,0,0-.325,1.759C1.71,6.629,1.7,6.927,1.7,9.47s.01,2.841.055,3.827a5.218,5.218,0,0,0,.325,1.758,2.925,2.925,0,0,0,.706,1.089,2.928,2.928,0,0,0,1.084.708,5.2,5.2,0,0,0,1.751.327c1,.045,1.3.055,3.812.055s2.811-.01,3.812-.055A5.2,5.2,0,0,0,15,16.852a3.127,3.127,0,0,0,1.791-1.8,5.27,5.27,0,0,0,.325-1.758c.045-1.006.055-1.307.055-3.827s-.01-2.821-.055-3.827a5.287,5.287,0,0,0-.325-1.759A2.951,2.951,0,0,0,16.083,2.8,2.916,2.916,0,0,0,15,2.087a5.2,5.2,0,0,0-1.751-.326C12.245,1.716,11.945,1.706,9.434,1.706Zm.019,12.649A4.866,4.866,0,1,1,14.3,9.489,4.863,4.863,0,0,1,9.453,14.355Zm0-8.025A3.159,3.159,0,1,0,12.6,9.489,3.157,3.157,0,0,0,9.453,6.33Zm5-.806A1.127,1.127,0,1,1,15.574,4.4,1.127,1.127,0,0,1,14.45,5.524Z" transform="translate(0)"/>
</svg>
