<?xml version="1.0" encoding="UTF-8"?>
<svg width="60px" height="60px" viewBox="0 0 60 60" version="1.1" xmlns="http://www.w3.org/2000/svg" xmlns:xlink="http://www.w3.org/1999/xlink">
    <!-- Generator: Sketch 59.1 (86144) - https://sketch.com -->
    <title>noun_play_2827067</title>
    <desc>Created with Sketch.</desc>
    <g id="Desktop" stroke="none" stroke-width="1" fill="none" fill-rule="evenodd">
        <g id="01-Home" transform="translate(-930.000000, -1340.000000)" fill="#FFFFFF" fill-rule="nonzero">
            <g id="video" transform="translate(0.000000, 970.000000)">
                <g id="noun_play_2827067" transform="translate(930.000000, 370.000000)">
                    <path d="M30,-7.10542736e-15 C13.4314575,-7.10542736e-15 0,13.4314575 0,30 C0,46.5685425 13.4314575,60 30,60 C46.5685425,60 60,46.5685425 60,30 C59.981252,13.4392294 46.5607706,0.0187480415 30,-7.10542736e-15 Z M30,56.4 C15.4196826,56.4 3.6,44.5803174 3.6,30 C3.6,15.4196826 15.4196826,3.6 30,3.6 C44.5803174,3.6 56.4,15.4196826 56.4,30 C56.3828076,44.5731901 44.5731901,56.3828076 30,56.4 Z" id="Shape"></path>
                    <polygon id="Path" points="40.317 30 23.283 39.846 23.283 20.154"></polygon>
                </g>
            </g>
        </g>
    </g>
</svg>