<svg xmlns="http://www.w3.org/2000/svg" width="22.013" height="18.939" viewBox="0 0 22.013 18.939">
  <path id="Shape" d="M19.419,2.994A4.744,4.744,0,0,0,21.4.35a8.739,8.739,0,0,1-2.868,1.16A4.389,4.389,0,0,0,15.24,0a4.653,4.653,0,0,0-4.514,4.781,5.02,5.02,0,0,0,.115,1.089,12.6,12.6,0,0,1-9.308-5,4.985,4.985,0,0,0-.611,2.4A4.863,4.863,0,0,0,2.93,7.259a4.342,4.342,0,0,1-2.047-.6V6.72a4.72,4.72,0,0,0,3.624,4.688,4.189,4.189,0,0,1-1.191.168,4.231,4.231,0,0,1-.849-.085,4.558,4.558,0,0,0,4.219,3.32,8.747,8.747,0,0,1-5.609,2.046A8.5,8.5,0,0,1,0,16.792a12.281,12.281,0,0,0,6.923,2.148A12.351,12.351,0,0,0,14.38,16.5a14.109,14.109,0,0,0,5.39-11.166c0-.208,0-.414-.012-.618a9.463,9.463,0,0,0,2.253-2.476A8.631,8.631,0,0,1,19.419,2.994Z" transform="translate(0)"/>
</svg>
