<svg xmlns="http://www.w3.org/2000/svg" width="16.491" height="18.81" viewBox="0 0 16.491 18.81">
  <path id="Shape" d="M7.936,18.81c-.566,0-1.077,0-1.48-.01-.58-.011-1.267-.027-1.532-.036-1.756-.064-2.947-.131-3.187-.18a1.756,1.756,0,0,1-.945-.577,3.253,3.253,0,0,1-.636-1.792,27.459,27.459,0,0,1,.013-5.97,2.95,2.95,0,0,1,.743-1.8,1.538,1.538,0,0,1,.75-.437,66.472,66.472,0,0,1,6.855-.247c.689,0,1.316.006,1.861.019,1.749.039,3.662.121,4.177.179a1.725,1.725,0,0,1,1.434,1.066,5.028,5.028,0,0,1,.416,2.045,23.207,23.207,0,0,1,.081,2.582,20.231,20.231,0,0,1-.219,3.05,2.608,2.608,0,0,1-.823,1.554,1.832,1.832,0,0,1-1.131.374l-.423.028c-.294.023-1.869.086-2.714.111C10.386,18.8,9.144,18.81,7.936,18.81ZM9.6,16.141a1.335,1.335,0,0,1,.224.186,1.051,1.051,0,0,0,.736.355,1.019,1.019,0,0,0,.291-.046.763.763,0,0,0,.4-.393c.152-.342.152-.342.152-2.26a12.635,12.635,0,0,0-.043-1.931c-.118-.511-.363-.749-.77-.749-.027,0-.055,0-.084,0a1.075,1.075,0,0,0-.7.359,1.746,1.746,0,0,1-.211.186c-.009-.012-.018-.508-.018-1.155V9.543h-.9v7.074h.9v-.238C9.57,16.219,9.579,16.141,9.6,16.141ZM5.062,11.374v2.271c0,2.475,0,2.527.14,2.766a.579.579,0,0,0,.523.27.992.992,0,0,0,.351-.068,1.691,1.691,0,0,0,.567-.4.7.7,0,0,1,.18-.152c.025,0,.032.067.032.276v.275h.9V11.374h-.9v4.045l-.194.193c-.153.154-.217.2-.311.227a.453.453,0,0,1-.126.02.218.218,0,0,1-.2-.121,9.505,9.505,0,0,1-.058-2.225l-.007-2.138h-.9Zm8.573-.074a1.34,1.34,0,0,0-.46.08,1.306,1.306,0,0,0-.883.992,9.022,9.022,0,0,0-.045,1.61c0,1.562.006,1.635.164,1.955a1.4,1.4,0,0,0,1.255.742,1.433,1.433,0,0,0,.387-.053,1.292,1.292,0,0,0,.936-.931,3.394,3.394,0,0,0,.054-.5l.013-.357h-.923l-.011.32c-.014.365-.051.489-.182.6a.443.443,0,0,1-.292.1.491.491,0,0,1-.274-.079c-.2-.136-.248-.363-.238-1.108l.007-.526.956-.006.955-.007-.012-.784a2.666,2.666,0,0,0-.179-1.318A1.362,1.362,0,0,0,13.635,11.3ZM1.551,9.542v.953L2.1,10.5l.554.006.006,3.023c0,1.667.011,3.037.018,3.055s.086.027.292.027h.212l.492-.007.013-3.047L3.7,10.508l.568-.006.567-.007-.007-.47-.007-.47L3.187,9.549Zm8.52,6.249a.621.621,0,0,1-.365-.141l-.087-.067v-3.2l.088-.067a.609.609,0,0,1,.363-.14.332.332,0,0,1,.31.192,6.093,6.093,0,0,1,.054,1.578,8.009,8.009,0,0,1-.037,1.6.338.338,0,0,1-.128.182A.35.35,0,0,1,10.071,15.791Zm4.061-2.41h-.49c-.419,0-.49-.005-.5-.039a4.828,4.828,0,0,1,.04-.867.445.445,0,0,1,.464-.357.412.412,0,0,1,.412.252c.054.109.059.157.068.566l.008.444ZM11.55,7.244a.859.859,0,0,1-.114-.008.579.579,0,0,1-.5-.331c-.126-.251-.126-.251-.126-2.749V1.823h1.01l.011,2.151v.119c.011,2.164.011,2.164.138,2.195l.009,0a.248.248,0,0,0,.061.008.591.591,0,0,0,.382-.225l.168-.173L12.6,3.861l.005-2.038.5-.007.5-.005V7.149l-.069.014c-.042.009-.258.013-.431.013a4.693,4.693,0,0,1-.478-.014c-.037-.01-.043-.046-.043-.254V6.665l-.143.141A1.328,1.328,0,0,1,11.55,7.244Zm-2.95,0a.833.833,0,0,1-.1-.005,1.432,1.432,0,0,1-1.066-.688c-.2-.375-.222-.56-.211-2.206A6.6,6.6,0,0,1,7.284,2.81,1.344,1.344,0,0,1,7.991,1.9a1.492,1.492,0,0,1,.668-.162,1.472,1.472,0,0,1,.815.252,1.332,1.332,0,0,1,.571.884,8.625,8.625,0,0,1,.047,1.6c0,1.558-.008,1.651-.167,1.987a1.411,1.411,0,0,1-.858.713A2,2,0,0,1,8.6,7.239Zm.052-4.567a.391.391,0,0,0-.369.31,28.634,28.634,0,0,0,0,3,.472.472,0,0,0,.257.3.437.437,0,0,0,.093.01.45.45,0,0,0,.26-.077c.172-.133.174-.148.183-1.645a9.126,9.126,0,0,0-.031-1.524c-.047-.215-.129-.316-.292-.362A.393.393,0,0,0,8.652,2.672Zm-3.092,4.5a4.853,4.853,0,0,1-.676-.027c-.022-.035-.019-2.091,0-2.391a3.243,3.243,0,0,0-.3-1.424c-.085-.239-.242-.711-.348-1.053l-.124-.4A12.626,12.626,0,0,1,3.562.007a.013.013,0,0,1,.012,0h.021L4.1,0c.3,0,.6,0,.609.008s.16.573.359,1.312c.191.71.354,1.314.357,1.327.01-.009.138-.487.252-.928C5.95.677,6.12.023,6.127.013A1.635,1.635,0,0,1,6.468,0h.27l.507,0L7.234.086c-.009.065-.351,1.222-.717,2.426-.04.132-.141.469-.224.753-.079.266-.183.613-.225.746l-.073.233V5.7c0,1.358,0,1.454-.043,1.464A2.89,2.89,0,0,1,5.559,7.176Z" transform="translate(0 0)"/>
</svg>
